<svg width="38" height="38" viewBox="0 0 38 38" fill="none" xmlns="http://www.w3.org/2000/svg">
<path d="M38 36.0126L27.3853 25.3979C29.9361 22.3356 31.2081 18.4079 30.9367 14.4317C30.6652 10.4555 28.8713 6.73699 25.9281 4.04977C22.9849 1.36254 19.1189 -0.086533 15.1345 0.00400043C11.1501 0.0945339 7.35397 1.7177 4.53584 4.53584C1.7177 7.35397 0.0945339 11.1501 0.00400043 15.1345C-0.086533 19.1189 1.36254 22.9849 4.04977 25.9281C6.73699 28.8713 10.4555 30.6652 14.4317 30.9367C18.4079 31.2081 22.3356 29.9361 25.3979 27.3853L36.0126 38L38 36.0126ZM2.86135 15.5113C2.86135 13.0093 3.60326 10.5636 4.99325 8.48335C6.38324 6.40308 8.35889 4.78171 10.6704 3.82427C12.9818 2.86683 15.5253 2.61632 17.9791 3.10442C20.433 3.59252 22.687 4.79731 24.4561 6.56643C26.2252 8.33555 27.43 10.5895 27.9181 13.0434C28.4062 15.4972 28.1557 18.0407 27.1983 20.3522C26.2408 22.6636 24.6194 24.6393 22.5392 26.0293C20.4589 27.4193 18.0132 28.1612 15.5113 28.1612C12.1574 28.1575 8.94205 26.8235 6.57054 24.452C4.19902 22.0805 2.86507 18.8651 2.86135 15.5113Z" fill="#FEFEFD"/>
</svg>
