<svg width="47" height="37" viewBox="0 0 47 37" fill="none" xmlns="http://www.w3.org/2000/svg">
<path d="M1 11V9C1 6.2 1 4.8 1.545 3.73C2.025 2.7875 2.7875 2.025 3.73 1.545C4.8 1 6.2 1 9 1H24.75M1 11H24.75M1 11V28C1 30.8 1 32.2 1.545 33.27C2.02436 34.2108 2.78923 34.9756 3.73 35.455C4.7975 36 6.1975 36 8.9925 36H38.0075C40.8025 36 42.2 36 43.2675 35.455C44.21 34.975 44.975 34.21 45.455 33.27C46 32.2 46 30.805 46 28.01V16M33.5 6.805L37.21 10.745C37.2928 10.8299 37.3926 10.8963 37.5029 10.9399C37.6131 10.9835 37.7313 11.0034 37.8498 10.9982C37.9683 10.993 38.0843 10.9629 38.1903 10.9098C38.2963 10.8567 38.3899 10.7818 38.465 10.69L46 1M8.5 26H18.5" stroke="#FEFEFD" stroke-width="1.5" stroke-linecap="round" stroke-linejoin="round"/>
</svg>
